<?xml version="1.0" standalone="no"?>
<!DOCTYPE svg PUBLIC "-//W3C//DTD SVG 20010904//EN"
 "http://www.w3.org/TR/2001/REC-SVG-20010904/DTD/svg10.dtd">
<svg version="1.0" xmlns="http://www.w3.org/2000/svg"
 width="512.000000pt" height="512.000000pt" viewBox="0 0 512.000000 512.000000"
 preserveAspectRatio="xMidYMid meet">
<metadata>
Created by potrace 1.14, written by Peter Selinger 2001-2017
</metadata>
<g transform="translate(0.000000,512.000000) scale(0.100000,-0.100000)"
fill="#000000" stroke="none">
<path d="M870 5112 c-102 -8 -229 -53 -315 -112 -64 -44 -155 -138 -155 -160
0 -6 -4 -10 -9 -10 -20 0 -88 -180 -97 -255 -9 -80 -4 -3735 5 -3776 29 -130
116 -240 236 -298 73 -35 119 -43 250 -46 145 -3 190 -18 262 -88 39 -37 51
-59 95 -180 23 -62 78 -123 138 -154 73 -37 192 -40 256 -6 39 20 152 101 182
130 7 7 16 13 20 13 4 0 24 15 44 33 21 17 55 45 75 60 21 16 64 48 96 72 63
48 178 99 247 111 25 4 502 8 1060 9 772 1 1029 5 1075 14 105 22 216 83 298
164 67 65 148 177 129 177 -4 0 -2 4 4 8 6 4 19 30 30 57 18 48 19 107 22
1884 3 2017 6 1886 -58 2012 -36 72 -49 88 -132 170 -78 76 -176 130 -283 155
-64 15 -224 17 -1755 18 -927 0 -1701 0 -1720 -2z"/>
</g>
</svg>
